<mxfile host="app.diagrams.net" modified="2023-10-26T10:46:31.163Z" agent="Mozilla/5.0 (Windows NT 10.0; Win64; x64) AppleWebKit/537.36 (KHTML, like Gecko) Chrome/118.0.0.0 Safari/537.36" version="22.0.8" etag="3nwrm3Fsl4axQ30cdoUJ" type="github">
  <diagram name="PÃ¡gina-1" id="B6JyDYfuaR4T67dyC2_I">
    <mxGraphModel>
      <root>
        <mxCell id="0" />
        <mxCell id="1" parent="0" />
      </root>
    </mxGraphModel>
  </diagram>
</mxfile>
